# xmcd
#
# Track frame offsets: 
#        150
#        15958
#        35095
#        51544
#        71327
#        90741
#        105872
#        123174
#        136332
#        155559
#
# Disc length: 2284 seconds
#
# Revision: 0
# Processed by: cddbd v1.5.2PL0 Copyright (c) Steve Scherf et al.
# Submitted via: ExactAudioCopy v0.95a4
#
DISCID=7a08ea0a
DTITLE=Heidi Newfield - What Am I Waiting For
DYEAR=2008
DGENRE=Country
TTITLE0=Can't Let Go
TTITLE1=When Tears Fall Down
TTITLE2=Johnny and June
TTITLE3=What Am I Waiting For
TTITLE4=Love Her and Lose Me
TTITLE5=Cry Cry ('Til the Sun Shines)
TTITLE6=Wreck You
TTITLE7=Nothin' Burns Like a Memory
TTITLE8=All I Wanna Do
TTITLE9=Knocked Up
EXTD=
EXTT0=
EXTT1=
EXTT2=
EXTT3=
EXTT4=
EXTT5=
EXTT6=
EXTT7=
EXTT8=
EXTT9=
PLAYORDER=
